<?xml version="1.0" encoding="utf-8"?>
<!-- Generator: Adobe Illustrator 23.0.2, SVG Export Plug-In . SVG Version: 6.00 Build 0)  -->
<svg version="1.1" id="Calque_1" xmlns="http://www.w3.org/2000/svg" xmlns:xlink="http://www.w3.org/1999/xlink" x="0px" y="0px"
	 viewBox="0 0 962 1280" style="enable-background:new 0 0 962 1280;" xml:space="preserve">
<style type="text/css">
	.st0{fill:#FFFFFF;}
</style>
<g transform="translate(0.000000,1280.000000) scale(0.100000,-0.100000)">
	<path class="st0" d="M720,12649c-145-82-269-148-275-145c-5,2-70,50-144,105c-74,56-138,98-141,94c-4-5-41-127-83-272l-77-264
		l296-2086l296-2086l154-318l154-318l35-296c19-163,35-298,35-301c0-2-7-2-15,2c-10,3-15-1-15-12c1-29,36-176,48-197
		c6-11,52-378,102-815s122-1064,161-1392c50-438,66-603,59-620c-5-13-46-185-90-383s-95-430-115-515c-87-390-118-643-118-955
		c0-478,89-818,293-1123c55-83,274-325,360-399c169-145,613-290,1038-339c184-22,349-15,452,20c395,132,553,220,766,431
		c134,133,213,233,311,393c191,315,349,743,444,1211c17,79,28,115,39,118s36,100,97,372l82,367l366,619c201,340,372,623,380,629
		c23,17,115,170,106,176c-4,3,121,222,278,488c261,441,288,483,310,480c21-3,32,9,78,87c29,50,53,93,53,96c0,4-9,9-20,12
		c-17,4-12,17,52,125c54,91,80,125,110,143c33,20,64,65,195,284c86,143,160,264,165,270c4,5-42-96-103-225c-124-262-172-366-165-359
		c5,5,1416,2127,2296,3454l617,930l17,474c9,261,14,476,13,478c-2,1-111-75-243-171c-273-198-247-195-260-35c-3,49-10,92-15,95
		c-4,2-195,2-424-2l-416-7l-42-84l-42-84l-204,276c-122,166-209,275-219,275c-9,0-182-30-384-66l-367-68l-83-202
		c-45-112-84-202-85-200c-2,2,21,70,52,151l56,147l-73,76c-357,378-633,662-643,662c-7,0-124-40-261-89s-372-132-521-186
		c-150-53-276-94-281-91s-15,37-22,76c-7,38-15,68-17,66s-11-33-19-67c-8-35-19-81-25-102l-10-38l-310,303c-171,167-346,336-390,377
		l-80,74l-227-106c-125-58-389-181-587-272c-198-92-362-169-364-171s-6-24-8-49c-9-72-18-60-15,18l3,72l-396,418
		c-218,229-401,417-406,417s-148-94-317-208c-169-115-312-211-317-214c-6-4-156,157-335,357s-327,364-330,364S866,12731,720,12649z
		 M6821,10773c-12-20-14-14-5,12c4,9,9,14,11,11C6830,10794,6827,10783,6821,10773z M1820,7033l210-335v-90v-90l-32,7
		c-106,23-411,95-413,97s-23,173-47,381l-44,377l56,86l55,86l3-92l3-91L1820,7033z M2915,6820c103-168,193-311,200-318
		c10-11,17-11,34-3c11,7,21,8,21,4c0-12-43-227-46-231c-1-2-36,3-76,13c-213,47-645,147-660,151c-16,5-18,22-18,167v162l166,194
		c136,158,169,190,179,179C2722,7131,2812,6988,2915,6820z M4050,7030l-12-51l53-77c30-42,91-131,136-196c46-66,83-126,83-133
		s-30-100-66-206c-122-355-108-322-140-320c-25,2-614,133-622,139c-2,1,16,132,40,290c30,203,47,292,58,301c28,23,475,310,479,307
		C4061,7082,4057,7058,4050,7030z M1280,6900c5-63,13-137,16-164l5-49l-38,7c-21,3-54,10-74,16c-34,10-37,13-43,62c-4,28-9,65-12,82
		l-5,31l20-35l21-35l-2,30c-1,21,13,52,47,103c26,40,49,71,51,69C1268,7016,1274,6963,1280,6900z M5231,6469l56-111l-119-256
		c-66-142-123-260-127-265c-6-6-529,107-539,118c-4,4,56,212,68,234c5,10,16,1,39-33c18-25,35-46,39-46s121,106,261,235
		s257,235,260,235S5200,6530,5231,6469z M1260,6496c32-7,56-18,57-27c3-15,103-1167,103-1181c0-9-50,0-62,11c-4,4-28,153-53,331
		c-53,377-103,737-111,795c-3,22-7,50-10,63C1179,6514,1184,6514,1260,6496z M1816,6365c104-25,192-45,197-45c8,0,7-507-2-901
		l-6-265l-129,28c-71,15-130,29-131,30c-4,4-135,1158-135,1181c0,9,4,17,9,17C1623,6410,1712,6390,1816,6365z M2676,6165
		c153-36,309-73,346-81c61-14,67-18,63-37c-3-12-50-260-104-550c-55-291-101-530-103-531c-1-1-109,21-238,49l-235,52l-6,269
		c-19,794-20,894-12,894C2392,6230,2522,6201,2676,6165z M5903,6165c15-31,27-59,27-64c0-9-217-399-230-414c-5-6-276,48-287,57
		c-2,1,17,49,41,106l44,103l35-68l34-69l149,202c82,111,151,202,154,202S5888,6195,5903,6165z M3755,5913c160-36,293-69,298-73
		c4-3-43-152-104-331c-61-178-140-411-177-517c-36-107-71-196-77-198c-7-3-102,15-211,39l-199,43l3,30c6,52,152,1028,157,1052
		c3,12,9,22,13,22S3596,5950,3755,5913z M4690,5695c129-30,240-57,247-59c7-3-78-195-224-508c-129-277-237-505-238-507
		c-4-3-346,69-353,75c-7,5,314,1054,323,1054C4450,5750,4561,5725,4690,5695z M6190,5640c22-40,38-75,36-78c-8-7-146,29-146,39
		c0,12,61,121,66,116C6148,5716,6168,5681,6190,5640z M5466,5513c63-15,114-30,114-34c0-10-530-951-545-967c-11-12-23-12-71-1
		c-33,7-60,14-62,15s92,230,209,508c139,330,218,506,227,506C5346,5540,5404,5528,5466,5513z M6072,5372l67-17l-289-474
		c-159-261-293-478-299-484s-24-7-49-1l-39,9l224,435c123,239,237,461,254,493C5974,5397,5975,5397,6072,5372z M1426,5112
		c10-6,101-978,92-987c-3-3-139,968-138,988C1380,5122,1412,5122,1426,5112z M1963,4994c20-4,39-9,41-13c5-8-14-1385-19-1390
		c-2-1-16,1-31,6l-28,9l-77,680c-43,373-80,695-82,715l-5,36l82-18C1888,5009,1942,4997,1963,4994z M2635,4841c206-46,210-48,207-72
		c-3-25-241-1299-245-1310c-2-6-144,24-152,33c-3,3-10,189-15,414s-12,538-16,697c-4,166-3,287,2,286C2421,4889,2520,4868,2635,4841
		z M3450,4659c102-23,187-43,189-45s-3-23-12-46c-9-24-93-268-187-543c-95-275-188-546-207-603l-36-102l-36,6c-20,4-52,12-71,18
		l-36,11l101,672c55,370,102,673,105,673S3348,4681,3450,4659z M4227,4484c87-20,160-38,162-40c2-1-129-286-290-633l-294-629l-30,5
		c-16,4-46,11-66,17l-36,11l196,652c108,359,197,653,198,653S4140,4504,4227,4484z M4901,4333c16-3,29-7,29-9c0-6-408-731-432-769
		c-28-43-29-47,156,394c165,389,171,402,194,396C4861,4342,4885,4336,4901,4333z M5436,4208c1-2-103-176-233-388
		c-129-212-234-380-232-374s93,184,203,396l198,386l31-9C5419,4215,5434,4209,5436,4208z M1527,4078c-3-8-6-5-6,6c-1,11,2,17,5,13
		C1529,4094,1530,4085,1527,4078z"/>
</g>
</svg>
