<svg xmlns="http://www.w3.org/2000/svg" width="60" height="50" viewBox="0 0 60 50">
  <g id="_2755129-673ab7" data-name="2755129-673ab7" transform="translate(11)">
    <path id="Tracé_29" data-name="Tracé 29" d="M55.439-980.964c-.066.01-.75.133-1.524.27s-1.988.357-2.7.484l-1.946.352c-.6.112-1.224.224-3.916.7-.478.082-1.754.311-2.837.5-1.824.326-2.631.469-5.323.948-4.948.877-6.369,1.137-6.683,1.224-.155.041-.333.092-.4.107-.188.046-.361.2-.633.571a3,3,0,0,0-.619,2.1c.019.209.178,1.346.361,2.524s.4,2.559.474,3.069.253,1.672.394,2.575c.464,2.988.994,6.465,1.458,9.5.417,2.753.624,4.038.816,5.124.07.408.155.923.188,1.147a3.345,3.345,0,0,0,.127.571,6.854,6.854,0,0,0,.75.887l.685.724.68-.036a18.716,18.716,0,0,0,2.049-.234c.183-.031.478-.077.657-.1s.877-.127,1.548-.229,1.266-.178,1.327-.178a.685.685,0,0,1,.3.163,2.507,2.507,0,0,1,.525.907l.333.739,0,.561a2.35,2.35,0,0,1-.155,1,3.8,3.8,0,0,1-.206.52c-.066.092.07.1-2.917-.219-1.032-.107-2.228-.214-2.659-.234l-.788-.031-.286-.189a5.869,5.869,0,0,1-1.566-1.968,11.6,11.6,0,0,1-1.327-2.677,4.664,4.664,0,0,1-.291-1.249,9.678,9.678,0,0,0-.732-3.492,12.775,12.775,0,0,0-1.318-2.172c-.225-.311-.736-1.02-1.135-1.575a14.325,14.325,0,0,0-.961-1.229,7.809,7.809,0,0,0-2.443-1.213,15.731,15.731,0,0,1-2.837-1.29c-1.172-.668-1.524-.989-1.834-1.672a3.6,3.6,0,0,1-.31-1.759,4.814,4.814,0,0,1,.572-2.09,10.871,10.871,0,0,0,.741-2.1,7.427,7.427,0,0,0,.174-1.6c.023-.51.089-1.29.145-1.738a12.47,12.47,0,0,0,.07-2.9,5.33,5.33,0,0,0-2.331-3.35,6.205,6.205,0,0,0-2.861-1.259,2.888,2.888,0,0,0-1.041-.02,5.6,5.6,0,0,0-2.073.658,5.479,5.479,0,0,0-2.622,3.222,16.875,16.875,0,0,0-.5,2.09c-.033.209-.094.612-.141.892a12.443,12.443,0,0,0,.066,3.447,2.316,2.316,0,0,0,.755,1.4,5,5,0,0,1,.483.561c.052.112.3,1.5.417,2.361a7.953,7.953,0,0,1,0,1.825c-.066,1.147-.084,1.315-.159,1.4a12.6,12.6,0,0,1-2.223,1.015c-3.569,1.458-4.432,1.851-4.976,2.254a3.865,3.865,0,0,0-1.379,1.835,20.162,20.162,0,0,0-1.337,5.96c-.169,1.427-.2,1.682-.324,2.651a46.737,46.737,0,0,0-.38,4.691c-.056,1.275-.145,2.559-.267,3.977-.061.714-.084,1.417-.084,2.906a21.776,21.776,0,0,0,.427,5.1c.234,1.285.239,1.29.361,1.249a14.452,14.452,0,0,1,2.612-.122c.891-.005,1.7-.02,1.8-.041.169-.026.178-.041.15-.163-.019-.071-.047-.755-.066-1.509l-.038-1.377-.174-.535a6.036,6.036,0,0,1-.446-1.912c-.061-.76-.141-1.851-.15-2.116a7.084,7.084,0,0,1,.211-1.045,10.448,10.448,0,0,0,.549-3.034c.028-.576.075-1.229.108-1.453.075-.52.084-.479.239,1.275.066.729.131,1.371.15,1.428s.042,2.08.056,4.492l.028,4.395.347.729c.188.4.366.765.394.8s1.937.061,9.337.051l9.29-.015-.009-.2c-.009-.112-.117-.709-.244-1.326-.3-1.422-.417-2.034-.455-2.3-.028-.209-.023-.214.178-.347.342-.219.385-.291.356-.632a2.138,2.138,0,0,0-.22-.714c-.277-.6-.267-.709.22-2.361.211-.7.314-1.162.807-3.589.347-1.7.525-2.549.619-2.921.042-.178.061-.209.108-.153.033.036.506.984,1.055,2.106,1.59,3.258,1.773,3.579,2.3,4.135a4.859,4.859,0,0,0,1.8,1.173,2.17,2.17,0,0,0,.844.056,6.168,6.168,0,0,0,.8-.082c.253-.051.4-.076,1.852-.311a38.7,38.7,0,0,0,6.214-1.351,7.066,7.066,0,0,0,3.044-1.361,8.127,8.127,0,0,0,.652-.775c.211-.28.657-.872.994-1.305s.783-1.009.99-1.274c.478-.617,2.237-3.079,2.514-3.518.113-.184.324-.561.464-.841a2.535,2.535,0,0,1,1.824-1.575c.375-.082,2.1-.423,3.025-.6.31-.056.891-.173,1.29-.255s1.107-.214,1.571-.3c2.19-.408,2.157-.4,2.2-.566.038-.117.07.127-.4-2.977-.539-3.584-.76-4.986-1.079-6.959-.052-.321-.127-.816-.169-1.1-.075-.5-.46-3-1.065-6.959-.169-1.081-.361-2.33-.427-2.779s-.188-1.208-.263-1.682-.216-1.361-.3-1.963c-.239-1.565-.375-2.294-.689-3.61l-.15-.622-.192.005A2.239,2.239,0,0,0,55.439-980.964Zm-6.472,31.125a2.342,2.342,0,0,1-.525.551c-.061,0-.042-.449.019-.489C48.611-949.88,48.967-949.926,48.967-949.839Zm-2.251.433a.62.62,0,0,1-.291.576c-.113.066-.324.209-.469.316-.3.219-.352.229-.385.1a2.711,2.711,0,0,1-.136-.826,8.088,8.088,0,0,1,1.2-.25A.073.073,0,0,1,46.716-949.406Zm-2.889.535c.014.066.033.52.047,1.015l.023.9-.145.031a2.149,2.149,0,0,1-.338.031h-.2l-.5-.816c-.277-.454-.5-.841-.5-.867,0-.061.23-.138.849-.275C43.757-949.008,43.8-949.008,43.828-948.87Z" transform="translate(-11.5 981)" fill="#e85a07"/>
  </g>
</svg>
