<svg xmlns="http://www.w3.org/2000/svg" xmlns:xlink="http://www.w3.org/1999/xlink" width="103" height="70" viewBox="0 0 103 70">
  <defs>
    <clipPath id="clip-path">
      <rect id="Rectangle_9" data-name="Rectangle 9" width="103" height="70" transform="translate(136 978)" fill="#fff" stroke="#707070" stroke-width="1"/>
    </clipPath>
  </defs>
  <g id="Groupe_de_masques_4" data-name="Groupe de masques 4" transform="translate(-136 -978)" clip-path="url(#clip-path)">
    <g id="Bouclier" transform="translate(138.792 973.363)">
      <path id="Tracé_30" data-name="Tracé 30" d="M49.157,4.637c2.106,1.328,4.184,2.7,6.324,3.974A78.539,78.539,0,0,0,65.913,13.8a63.061,63.061,0,0,0,9.439,3.069c.6.14,1.2.271,1.793.426a1.853,1.853,0,0,1,1.566,1.853,60.98,60.98,0,0,1-.191,8.931,51.644,51.644,0,0,1-1.552,8.845c-.729,2.592-1.6,5.152-2.56,7.67a51.35,51.35,0,0,1-4.149,8.273,68.128,68.128,0,0,1-5.931,8.3,70.926,70.926,0,0,1-8.3,8.419,45.567,45.567,0,0,1-6.868,5.046h-.895a41.033,41.033,0,0,1-7.139-5.332c-2.35-2.2-4.693-4.42-6.858-6.8A61.345,61.345,0,0,1,24.91,48.815a58.157,58.157,0,0,1-4.14-10.649,59.563,59.563,0,0,1-2.08-18.8,1.978,1.978,0,0,1,1.7-2.1c2.6-.712,5.222-1.369,7.791-2.185a62.119,62.119,0,0,0,9.34-3.975,78.605,78.605,0,0,0,8.331-4.869c.8-.539,1.606-1.067,2.409-1.6ZM22.369,20.675c-.01.123-.024.233-.027.343a55.2,55.2,0,0,0,1.712,15.16A54.6,54.6,0,0,0,29.243,49.09,63.122,63.122,0,0,0,37.609,60.7a66.356,66.356,0,0,0,10.61,9.53.691.691,0,0,0,.978,0c2.265-1.871,4.61-3.651,6.79-5.616a58.822,58.822,0,0,0,7.29-8.066,59,59,0,0,0,7.894-13.69,52.627,52.627,0,0,0,3.768-16.251c.134-1.966.137-3.941.2-5.937-.915-.237-1.744-.44-2.565-.668a72.7,72.7,0,0,1-8.692-3.025,80.251,80.251,0,0,1-9.26-4.554c-1.85-1.071-3.647-2.233-5.46-3.366a.672.672,0,0,0-.856-.017c-.745.524-1.494,1.051-2.282,1.506-2.336,1.346-4.654,2.73-7.051,3.96-2.066,1.06-4.2,1.992-6.357,2.866-1.893.769-3.837,1.418-5.782,2.049C25.368,19.9,23.866,20.259,22.369,20.675Z" fill="#ffa705" fill-rule="evenodd"/>
      <path id="Tracé_31" data-name="Tracé 31" d="M70.845,23.565a45.619,45.619,0,0,1-.244,8.023,37.119,37.119,0,0,1-1.669,7.681c-.783,2.224-1.668,4.419-2.64,6.567a39.4,39.4,0,0,1-4.065,6.791,54.9,54.9,0,0,1-6.141,7.143,50.947,50.947,0,0,1-6.745,5.573.933.933,0,0,1-1.235.021,53.667,53.667,0,0,1-8.143-7.013,53.029,53.029,0,0,1-6.315-8.005,45.556,45.556,0,0,1-5.373-11.732,44.653,44.653,0,0,1-1.733-14.687c.017-.375.173-.455.483-.523a54.3,54.3,0,0,0,11.7-4,57.757,57.757,0,0,0,9.353-5.422.92.92,0,0,1,1.266,0,60.885,60.885,0,0,0,8.023,4.721,55.76,55.76,0,0,0,8.461,3.465C67.465,22.68,69.127,23.091,70.845,23.565Z" fill="#ffa705" fill-rule="evenodd"/>
    </g>
  </g>
</svg>
