<?xml version="1.0" encoding="utf-8"?>
<!-- Generator: Adobe Illustrator 23.0.2, SVG Export Plug-In . SVG Version: 6.00 Build 0)  -->
<svg version="1.1" id="Capa_1" xmlns="http://www.w3.org/2000/svg" x="0px"
     y="0px"
     viewBox="0 0 25.7 25.7" style="enable-background:new 0 0 25.7 25.7;" xml:space="preserve">
<style type="text/css">
	.st0{fill:#FFFFFF;}
</style>
    <g>
	<g>
		<circle class="st0" cx="3.3" cy="2.8" r="2.8"/>
	</g>
        <g>
		<path class="st0" d="M5,11.6l9.6,9.6c-1.2,0-2.4-0.2-3.5-0.7c-0.4-0.1-2.2-0.4-2.9,0.3c-1.6,1.6-3,3.7-3.8,4.5
			c-0.8,0.8-1.9,0.5-2.9-0.6c-1-1-1.4-2.2-0.6-2.9s2.9-2.2,4.5-3.8c0.7-0.7,0.3-2.7,0.3-3C5.2,13.9,5,12.8,5,11.6z M22.4,3.8
			c-4.6-4.7-10.8-3-14.6,0.8C6.4,6,5.6,7.7,5.2,9.5L16.7,21c1.8-0.4,3.5-1.2,5-2.7C25.4,14.5,27.1,8.4,22.4,3.8z"/>
	</g>
</g>
</svg>
