<svg xmlns="http://www.w3.org/2000/svg" xmlns:xlink="http://www.w3.org/1999/xlink" width="78" height="49" viewBox="0 0 78 49">
  <defs>
    <clipPath id="clip-path">
      <rect id="Rectangle_4" data-name="Rectangle 4" width="78" height="49" fill="#fff" stroke="#707070" stroke-width="1"/>
    </clipPath>
  </defs>
  <g id="Groupe_de_masques_3" data-name="Groupe de masques 3" transform="translate(0)" clip-path="url(#clip-path)">
    <g id="seo-label-svgrepo-com_2_" data-name="seo-label-svgrepo-com (2)" transform="translate(14.496 0)">
      <path id="Tracé_20" data-name="Tracé 20" d="M3.26,17.961,32.883,47.584l14.7-14.7L17.961,3.26,5.31,5.31,3.26,17.961ZM32.883,50.1a1.03,1.03,0,0,1-.74-.31L1.41,19.062a1.011,1.011,0,0,1-.29-.9L3.38,4.24a1.04,1.04,0,0,1,.86-.86L18.151,1.12a1.039,1.039,0,0,1,.9.29L49.794,32.153a1.038,1.038,0,0,1,0,1.48L33.623,49.794A1.03,1.03,0,0,1,32.883,50.1Z" transform="translate(-1.098 -1.104)" fill="#231f20"/>
      <g id="Groupe_19" data-name="Groupe 19">
        <path id="Tracé_21" data-name="Tracé 21" d="M10.811,7.061a3.75,3.75,0,1,0,3.75,3.75,3.752,3.752,0,0,0-3.75-3.75Zm0,5.41a1.66,1.66,0,1,1,1.66-1.66A1.662,1.662,0,0,1,10.811,12.471Z" transform="translate(-1.098 -1.104)" fill="#fff"/>
        <path id="Tracé_22" data-name="Tracé 22" d="M49.794,32.143,19.062,1.41a1.019,1.019,0,0,0-.9-.29L4.24,3.38a1.04,1.04,0,0,0-.86.86L1.11,18.151a1.029,1.029,0,0,0,.29.9L32.143,49.794a1.044,1.044,0,0,0,1.47,0L49.794,33.613a1.024,1.024,0,0,0,0-1.47ZM32.883,47.584,3.26,17.961,5.31,5.31,17.961,3.25,47.584,32.873Z" transform="translate(-1.098 -1.104)" fill="#fff"/>
        <path id="Tracé_23" data-name="Tracé 23" d="M16.921,16.411a5.419,5.419,0,0,0,.89,2.26c.44.73.71,1.2.82,1.42a1.637,1.637,0,0,1,.2.8.9.9,0,0,1-.27.56,1.237,1.237,0,0,1-1.01.33,2.147,2.147,0,0,1-1.3-.73,2.161,2.161,0,0,1-.69-1.33,2.3,2.3,0,0,1,.51-1.5l-1.49-1.23a3.747,3.747,0,0,0-.93,2.6,4.21,4.21,0,0,0,1.41,2.62,5.481,5.481,0,0,0,1.76,1.25,2.785,2.785,0,0,0,1.7.16,2.9,2.9,0,0,0,1.44-.78,2.871,2.871,0,0,0,.82-1.38,2.834,2.834,0,0,0-.06-1.47,9.255,9.255,0,0,0-1.01-2,5.224,5.224,0,0,1-.82-1.74.786.786,0,0,1,.21-.63.717.717,0,0,1,.65-.21,2.228,2.228,0,0,1,1.2.7,1.972,1.972,0,0,1,.65,1.12,1.7,1.7,0,0,1-.38,1.15l1.46,1.33a2.845,2.845,0,0,0,.83-2.21,4.131,4.131,0,0,0-1.39-2.53,4.925,4.925,0,0,0-1.6-1.12,2.572,2.572,0,0,0-3.6,2.56Z" transform="translate(-1.098 -1.104)" fill="#fff"/>
        <path id="Tracé_24" data-name="Tracé 24" d="M24.372,31.272l1.16-1.16-3.86-3.86,1.88-1.88,3.47,3.47,1.17-1.17-3.47-3.46,1.53-1.53,3.73,3.72,1.17-1.17-5.13-5.12-6.9,6.911Z" transform="translate(-1.098 -1.104)" fill="#fff"/>
        <path id="Tracé_25" data-name="Tracé 25" d="M28.682,28.762a5.051,5.051,0,0,0-1.68,3.5,5.143,5.143,0,0,0,4.89,4.88,5.093,5.093,0,0,0,3.53-1.71,5.15,5.15,0,0,0,1.72-3.55,4.592,4.592,0,0,0-1.5-3.39,5.438,5.438,0,0,0-1.76-1.22,3.725,3.725,0,0,0-1.51-.27,4.77,4.77,0,0,0-1.59.3,6.212,6.212,0,0,0-2.1,1.46Zm3.8.14a2.486,2.486,0,0,1,1.98.8,2.512,2.512,0,0,1,.8,1.97,3.651,3.651,0,0,1-1.25,2.29,3.769,3.769,0,0,1-2.34,1.27,2.637,2.637,0,0,1-2.74-2.75,3.623,3.623,0,0,1,1.24-2.32,3.64,3.64,0,0,1,2.31-1.26Z" transform="translate(-1.098 -1.104)" fill="#fff"/>
      </g>
    </g>
  </g>
</svg>
