<?xml version="1.0" encoding="utf-8"?>
<!-- Generator: Adobe Illustrator 23.0.2, SVG Export Plug-In . SVG Version: 6.00 Build 0)  -->
<svg version="1.1" id="Capa_1" xmlns="http://www.w3.org/2000/svg" x="0px"
     y="0px"
     viewBox="0 0 473.5 473.5" style="enable-background:new 0 0 473.5 473.5;" xml:space="preserve">
<style type="text/css">
	.st0{fill:#FFFFFF;}
</style>
    <g>
	<g id="Layer_1_37_">
		<g>
			<path class="st0" d="M347.5,231.2c24.6,2.9,46.9-14.7,49.8-39.4c2.9-24.6-14.7-46.9-39.4-49.8c-24.6-2.9-46.9,14.7-49.8,39.4
				S322.9,228.4,347.5,231.2z"/>
            <path class="st0" d="M152.1,194.7l66.7-13.3l14.4,23.1l-52,49.4c8,2,15.7,5,22.9,9c3.4,1.9,6.7,4.1,9.8,6.2c5,3.4,9.7,6.7,14.4,8
				c3.7,1,8.6,1.1,8.9,1.1c6.6-0.1,12.4-1.9,18.3-5.8c15.4-10.1,34.3-20.5,57.8-21.5c1.7-0.1,3.5-0.1,5.2-0.1
				c7.5,0,14.9,0.7,21.9,2.2c-4.8-7.7-90.9-112-90.9-112l-2.3-2.7c-5.6-6.6-14.8-9.4-23.4-6.2l-81,29.7
				c-7.8,2.9-12.6,11.1-10.9,19.5C133.7,190.6,142.8,196.6,152.1,194.7z"/>
            <path class="st0" d="M447.1,298.4c-11,5-19.3,7-28.4,7c-3.6,0-7.3-0.3-11.4-1c-13.5-2.4-23.2-10.2-32.5-17.8
				c-5.7-4.6-11.2-9-17.4-12.3c-11.4-5.9-25-9-39.5-9c-1.5,0-3,0-4.5,0.1c-19.8,0.9-35.9,9.7-50.3,19.1c-8.5,5.5-18.5,8.2-27.6,8.2
				c-2.7,0-8.3-0.6-12-1.6c-7-2-12.9-6.1-18.7-10c-3-2-5.8-3.9-8.6-5.5c-12.1-6.7-26.1-10.2-40.4-10.2h-0.3
				c-20.1,0.1-38.2,6.2-52.5,17.8c-19.9,16.1-33,20.7-36.7,21.3c0,0-3.1,0.8-9.9,0.8c-12.9,0-23.7-4.2-34.5-8.9
				c-7.6-3.3-14.8-5.2-21.8-5.8c1.4,0.8,2.7,1.6,3.9,2.5c5.5,3.8,10,8.5,14.4,13c2.3,2.4,4.5,4.7,6.9,6.8c9.2,8.5,28.2,18.4,50,18.4
				c11.1,0,21.8-2.4,31.8-7.2c3-1.4,5.8-3.1,8.9-4.8c5.1-2.9,10.3-5.9,16.1-7.8c7.3-2.5,18.8-1.7,18.8-1.7
				c11.8,0.8,20.7,6.3,27.1,11.1c19.5,14.6,37.9,21.4,57.8,21.6h1c13.7,0,26.3-2.6,37.4-7.9c5.2-2.4,10.1-6,15.3-9.8
				c9.8-7.1,19.8-14.5,32.8-15c0.8,0,1.6,0,2.4,0c7.1,0,17.8,1.2,28.5,7.1c12.8,7.1,28.3,14.4,46.1,14.4c2.6,0,5.2-0.2,7.9-0.4
				c16.4-1.9,30.3-7.9,41.3-18c2.4-2.2,4.6-4.4,6.9-6.9c5-5.1,10.2-10.5,16.7-14.5c0.5-0.3,1-0.6,1.5-0.9
				C465.6,291.4,457.2,293.9,447.1,298.4z"/>
		</g>
	</g>
</g>
</svg>
